/* XPM */
static char * ac_xpm[] = {
"12 12 3 1",
" 	c None",
".	c #000000",
"+	c #E0FFFF",
"............",
"......+++...",
".....++++...",
"....++++++++",
"...++++++...",
"+++++++++...",
"+++++++++...",
"...++++++...",
"....++++++++",
".....++++...",
"......+++...",
"............"};
