/* XPM */
static char * bat_3_xpm[] = {
"12 12 3 1",
" 	c None",
".	c #9E9E9E",
"+	c #3D3DFF",
"            ",
"    ....    ",
"   ......   ",
"   .++++.   ",
"   .++++.   ",
"   .++++.   ",
"   .++++.   ",
"   .++++.   ",
"   .++++.   ",
"   .++++.   ",
"   ......   ",
"            "};
