/* XPM */
static char * cpu_xpm[] = {
"12 12 4 1",
" 	c None",
".	c #000000",
"+	c #414141",
"@	c #E0FFFF",
".+@+@++@+@+.",
"+@@@@@@@@@@+",
"@@++++++++@@",
"+@++++++++@+",
"@@++++++++@@",
"+@++++++++@+",
"+@++++++++@+",
"@@++++++++@@",
"+@++++++++@+",
"@@++++++++@@",
"+@@@@@@@@@@+",
".+@+@++@+@+."};
