/* XPM */
static char * downarrow_xpm[] = {
"7 12 2 1",
" 	c None",
".	c #9E9E9E",
"       ",
"  ...  ",
"  ...  ",
"  ...  ",
"  ...  ",
"  ...  ",
"  ...  ",
".......",
" ..... ",
"  ...  ",
"   .   ",
"       "};
