/* XPM */
static char * net_3_xpm[] = {
"10 12 2 1",
" 	c None",
".	c #9E9E9E",
"  ......  ",
" .      . ",
".  ....  .",
"  .    .  ",
"    ..    ",
"          ",
"    ..    ",
"    ..    ",
"    ..    ",
"   ....   ",
"   ....   ",
"   ....   "};
