/* XPM */
static char * net_2_xpm[] = {
"10 12 3 1",
" 	c None",
".	c #000000",
"+	c #E0FFFF",
"..........",
"..........",
"...++++...",
"..+....+..",
"....++....",
"..........",
"....++....",
"....++....",
"....++....",
"...++++...",
"...++++...",
"...++++..."};
