/* XPM */
static char * ram_xpm[] = {
"12 12 3 1",
" 	c #000000",
".	c #E0FFFF",
"+	c #414141",
"            ",
"............",
".++++++++.++",
".++++++++...",
".++++++++.++",
".++++++++...",
"..........++",
".++++++++...",
".++++++++.++",
".++++++++...",
".++++++++.++",
"............"};
