/* XPM */
static char * snd_3_xpm[] = {
"12 12 2 1",
" 	c #000000",
".	c #E0FFFF",
"     .   .  ",
"    ..    . ",
"   ...  .  .",
"......   . .",
"...... . . .",
"...... . . .",
"...... . . .",
"...... . . .",
"......   . .",
"   ...  .  .",
"    ..    . ",
"     .   .  "};
