/* XPM */
static char * snd_2_xpm[] = {
"12 12 2 1",
" 	c None",
".	c #9E9E9E",
"     .      ",
"    ..      ",
"   ...  .   ",
"......   .  ",
"...... . .  ",
"...... . .  ",
"...... . .  ",
"...... . .  ",
"......   .  ",
"   ...  .   ",
"    ..      ",
"     .      "};
