/* XPM */
static char * snd_m_xpm[] = {
"12 12 3 1",
" 	c None",
".	c #9E9E9E",
"+	c #FF7E3D",
"     .    ++",
"    ..   +++",
"   ...  +++ ",
"...... +++  ",
"......+++   ",
".....+++    ",
"....+++     ",
"...+++      ",
"..+++.      ",
" +++..      ",
"+++ ..      ",
"++   .      "};
