/* XPM */
static char * uparrow_xpm[] = {
"7 12 2 1",
" 	c #000000",
".	c #E0FFFF",
"       ",
"   .   ",
"  ...  ",
" ..... ",
".......",
"  ...  ",
"  ...  ",
"  ...  ",
"  ...  ",
"  ...  ",
"  ...  ",
"       "};
